<!-- Auto3 -->
<svg viewBox="0 0 200 150" xmlns="http://www.w3.org/2000/svg">


  <!-- Glow -->

   <defs>
     <filter id="glow">
       <feDropShadow dx="0" dy="0" stdDeviation="2" flood-color="#4da3ff" flood-opacity="1"/>
     </filter>
   </defs>

  <!-- Vnější rámeček -->
  <rect
    x="20" y="20"
    width="150" height="100"
    rx="17"
    fill="none"
    stroke="darkblue"
    stroke-width="0.2"
  />

  <!-- Pill badge -->
  <rect
    x="32" y="30"
    width="60" height="12"
    rx="7"
    fill="none"
    stroke="darkblue"
    stroke-width="0.2"
  />

  <!-- Text inside pill -->
  <text
    x="62" y="37"
    font-size="8"
    font-family="Inter, sans-serif"
    fill="darkblue"
    text-anchor="middle"
    dominant-baseline="middle"
    letter-spacing="0.5"
  >
    Automotiv
  </text>

  <!-- AUTO – vložené a zmenšené -->
  <g transform="translate(21,55) scale(0.03)">
    <!-- (auto paths beze změny) -->
    <!-- Horní linie auta -->
    <path d="M 9768.66,8326.2 C 11108.2,7741.37 10720,5772 10720,5772 h 9202.3 L 11215,6270.7 c 87.4,1727.87 -1446.34,2055.5 -1446.34,2055.5"
          transform="matrix(0.13333333,0,0,-0.13333333,0,2266.6667)"
          fill="none" stroke="darkblue" stroke-width="40"
          stroke-linecap="round" stroke-linejoin="round" />

    <!-- Střední linie auta -->
    <path d="M 21612.2,8805.97 C 20046.9,9399.45 6714.27,9176.39 6714.27,9176.39 L 21612.2,8805.97"
          transform="matrix(0.13333333,0,0,-0.13333333,0,2266.6667)"
          fill="none" stroke="darkblue" stroke-width="140"
          stroke-linecap="round" stroke-linejoin="round" />

    <!-- Zadní kolo -->
    <path d="m 7551.26,7857.64 c -650.05,-650.06 -650.05,-1704.14 0.05,-2354.14 36.89,-36.9 75.1,-71.7 114.48,-104.4 -543.63,653.9 -508.79,1626.49 104.37,2239.65 613.19,613.2 1585.75,648.03 2239.74,104.41 -32.72,39.37 -67.51,77.58 -104.41,114.48 -650.09,650.1 -1704.13,650.1 -2354.23,0"
          transform="matrix(0.13333333,0,0,-0.13333333,0,2266.6667)"
          fill="darkblue" stroke="darkblue" stroke-width="40"
          stroke-linecap="round" stroke-linejoin="round" />

    <!-- Přední kolo -->
    <path d="m 20793.5,7857.64 c -650,-650.06 -650,-1704.14 0.1,-2354.14 36.9,-36.9 75.1,-71.7 114.4,-104.4 -543.6,653.9 -508.7,1626.49 104.4,2239.65 613.2,613.2 1585.8,648.03 2239.7,104.41 -32.7,39.37 -67.4,77.58 -104.3,114.48 -650.1,650.1 -1704.2,650.1 -2354.3,0"
          transform="matrix(0.13333333,0,0,-0.13333333,0,2266.6667)"
          fill="none" stroke="darkblue" stroke-width="40"
          stroke-linecap="round" stroke-linejoin="round" />

    <!-- Přední kapota -->
    <path d="m 25379.6,7998.66 c 165,-228.12 509.4,-234.9 504.7,-210.6 -145.6,752.3 -1888,623.15 -1834.6,511.52 53.4,-111.63 922.2,-436.82 897.9,-325.19 -24.2,111.64 267,252.39 432,24.27"
          transform="matrix(0.13333333,0,0,-0.13333333,0,2266.6667)"
          fill="none" stroke="darkblue" stroke-width="40"
          stroke-linecap="round" stroke-linejoin="round" />

    <!-- Horní část / spoiler -->
    <path d="m 25337.3,8923.57 c -1494.9,815.4 -6202.9,893.06 -6202.9,893.06 0,0 -3067.4,1922.07 -5610.7,1776.37 -1847.7,-105.7 -4858.34,-798.1 -6367,-1169 -639.91,-157.3 -1291.43,-261.1 -1948.57,-310 l -1124.62,-83.8 976.8,4 c 886.13,3.7 1768.83,107.2 2632.03,307.5 1770.77,410.9 4938.76,1087.6 6302.16,1013.5 1944.1,-105.7 4251.7,-1412.38 4790.5,-1747.27 0,0 5193.3,-94.05 6591.1,-932.8 C 26774,7836.37 26200,7008.84 26200,7008.84 l 65.5,-895.44 -1652.4,-279.3 c -2.1,2109.22 -1422,2260.69 -1422,2260.69 0,0 1281.3,-539.92 1243.4,-2290.89 l 2024,193 v 975.5 c 0,0 373.7,1135.77 -1121.2,1951.17"
          transform="matrix(0.13333333,0,0,-0.13333333,0,2266.6667)"
          fill="none" stroke="darkblue" stroke-width="40"
          stroke-linecap="round" stroke-linejoin="round" />

    <!-- Zadní část auta -->
    <path d="m 3862.81,6386.8 119.18,405.2 c 0,0 -308.48,1424.58 94.37,1759.47 402.85,334.9 1014.4,160.17 1218.25,310.63 95.23,70.29 186.73,123.68 245.37,230.54 79.25,144.43 -10.04,393.01 -170.45,430.55 -112.36,26.3 -262.35,32.68 -453.5,-15.56 -499.92,-126.2 -820.25,-203.85 -1019.25,174.73 0,0 116.48,-414.99 247.53,-414.99 131.05,0 656.72,94.31 880.93,138.33 278.13,54.6 713.47,-342.18 -94.65,-495.07 -808.12,-152.89 -1064.3,-43.11 -1215.82,-866.36 -168.39,-914.89 35.46,-1269.17 35.46,-1269.17 L 3500,6216.9 7063.73,5693.8 c 0,0 -406.21,353.2 -2837.85,639.6 l -363.07,53.4"
          transform="matrix(0.13333333,0,0,-0.13333333,0,2266.6667)"
          fill="darkblue" stroke="darkblue" stroke-width="40"
          stroke-linecap="round" stroke-linejoin="round" />

  </g>

  <!-- AUTAPLNAEMOCI.CZ -->
  <text
    x="90" y="110"
    font-size="8"
    font-family="IBM Plex Sans, sans-serif"
    fill="darkblue"
    text-anchor="middle"
    filter="url(#glow)"

  >
    AUTAPLNAEMOCI.CZ
  </text>

  <!-- Inovativní projekt zaměřený na emoční vrstvu mobility -->
  <text
    x="95" y="63"
    font-size="6"
    font-family="Inter, sans-serif"
    fill="darkblue"
    text-anchor="middle"
    filter="url(#glow)"

  >
    Inovativní projekt zaměřený na emoční vrstvu mobility
  </text>

</svg>
